<svg width="74" height="75" viewBox="0 0 74 75" fill="none" xmlns="http://www.w3.org/2000/svg">
<path d="M0 16.7762H11V53.2762C11 56.3138 8.53757 58.7762 5.5 58.7762V58.7762C2.46243 58.7762 0 56.3137 0 53.2762V16.7762Z" fill="#264653"/>
<path d="M74 58.7762L63 58.7762L63 22.2762C63 19.2386 65.4624 16.7762 68.5 16.7762V16.7762C71.5376 16.7762 74 19.2386 74 22.2762L74 58.7762Z" fill="#2A9D8F"/>
<path d="M21 16.7762H32V53.2762C32 56.3138 29.5376 58.7762 26.5 58.7762V58.7762C23.4624 58.7762 21 56.3137 21 53.2762V16.7762Z" fill="#E9C46A"/>
<rect x="42" y="16.7762" width="11" height="42" fill="#E76F51"/>
<path fill-rule="evenodd" clip-rule="evenodd" d="M20.9 16.7762H32C32 7.93962 24.8366 0.776184 16 0.776184C7.16344 0.776184 0 7.93962 0 16.7762H11.1C11.5633 14.4939 13.581 12.7762 16 12.7762C18.419 12.7762 20.4367 14.4939 20.9 16.7762Z" fill="#2A9D8F"/>
<path fill-rule="evenodd" clip-rule="evenodd" d="M41.9 16.7762H53C53 7.93963 45.8366 0.776184 37 0.776184C28.1634 0.776184 21 7.93963 21 16.7762H32.1C32.5633 14.4939 34.581 12.7762 37 12.7762C39.419 12.7762 41.4367 14.4939 41.9 16.7762Z" fill="#F4A261"/>
<path fill-rule="evenodd" clip-rule="evenodd" d="M53.1 58.7762L42 58.7762C42 67.6127 49.1634 74.7762 58 74.7762C66.8366 74.7762 74 67.6127 74 58.7762L62.9 58.7762C62.4367 61.0584 60.419 62.7762 58 62.7762C55.581 62.7762 53.5633 61.0584 53.1 58.7762Z" fill="#264653"/>
</svg>
